<svg id="category" xmlns="http://www.w3.org/2000/svg" width="22.204" height="22.204" viewBox="0 0 22.204 22.204">
  <path id="Vector" d="M2.776,7.4h1.85A2.453,2.453,0,0,0,7.4,4.626V2.776A2.453,2.453,0,0,0,4.626,0H2.776A2.453,2.453,0,0,0,0,2.776v1.85A2.453,2.453,0,0,0,2.776,7.4Z" transform="translate(1.85 1.85)" fill="#5271ee" stroke="#5271ee" stroke-linecap="round" stroke-linejoin="round" stroke-width="1.5"/>
  <path id="Vector-2" data-name="Vector" d="M2.776,7.4h1.85A2.453,2.453,0,0,0,7.4,4.626V2.776A2.453,2.453,0,0,0,4.626,0H2.776A2.453,2.453,0,0,0,0,2.776v1.85A2.453,2.453,0,0,0,2.776,7.4Z" transform="translate(12.953 1.85)" fill="#5271ee" stroke="#5271ee" stroke-linecap="round" stroke-linejoin="round" stroke-width="1.5"/>
  <path id="Vector-3" data-name="Vector" d="M2.776,7.4h1.85A2.453,2.453,0,0,0,7.4,4.626V2.776A2.453,2.453,0,0,0,4.626,0H2.776A2.453,2.453,0,0,0,0,2.776v1.85A2.453,2.453,0,0,0,2.776,7.4Z" transform="translate(12.953 12.953)" fill="#5271ee" stroke="#5271ee" stroke-linecap="round" stroke-linejoin="round" stroke-width="1.5"/>
  <path id="Vector-4" data-name="Vector" d="M2.776,7.4h1.85A2.453,2.453,0,0,0,7.4,4.626V2.776A2.453,2.453,0,0,0,4.626,0H2.776A2.453,2.453,0,0,0,0,2.776v1.85A2.453,2.453,0,0,0,2.776,7.4Z" transform="translate(1.85 12.953)" fill="#5271ee" stroke="#5271ee" stroke-linecap="round" stroke-linejoin="round" stroke-width="1.5"/>
  <g id="Vector-5" data-name="Vector" fill="#5271ee" opacity="0">
    <path d="M 21.70446395874023 21.70446395874023 L 0.5000038743019104 21.70446395874023 L 0.5000038743019104 0.5000038743019104 L 21.70446395874023 0.5000038743019104 L 21.70446395874023 21.70446395874023 Z" stroke="none"/>
    <path d="M 1.000003814697266 1.000003814697266 L 1.000003814697266 21.20446395874023 L 21.20446395874023 21.20446395874023 L 21.20446395874023 1.000003814697266 L 1.000003814697266 1.000003814697266 M 3.814697265625e-06 3.814697265625e-06 L 22.20446395874023 3.814697265625e-06 L 22.20446395874023 22.20446395874023 L 3.814697265625e-06 22.20446395874023 L 3.814697265625e-06 3.814697265625e-06 Z" stroke="none" fill="#707070"/>
  </g>
</svg>
