<svg id="edit" xmlns="http://www.w3.org/2000/svg" width="15.75" height="15.75" viewBox="0 0 15.75 15.75">
  <path id="Path_1863" data-name="Path 1863" d="M13.962.626l-8,8A3.259,3.259,0,0,0,5,10.947v.881a.656.656,0,0,0,.656.656h.881a3.259,3.259,0,0,0,2.32-.961l8-8a2.051,2.051,0,0,0,0-2.9A2.1,2.1,0,0,0,13.962.626ZM15.93,2.594l-8,8a1.982,1.982,0,0,1-1.392.576H6.312v-.225a1.982,1.982,0,0,1,.576-1.392l8-8a.753.753,0,0,1,1.041,0,.737.737,0,0,1,0,1.041Z" transform="translate(-1.719 -0.015)" fill="#c6d0f7"/>
  <path id="Path_1864" data-name="Path 1864" d="M15.094,5.892a.656.656,0,0,0-.656.656v3.3H11.813a1.969,1.969,0,0,0-1.969,1.969v2.625H3.281a1.969,1.969,0,0,1-1.969-1.969V3.281A1.969,1.969,0,0,1,3.281,1.313H9.215A.656.656,0,0,0,9.215,0H3.281A3.285,3.285,0,0,0,0,3.281v9.188A3.285,3.285,0,0,0,3.281,15.75h7.444a3.26,3.26,0,0,0,2.321-.961l1.743-1.744a3.26,3.26,0,0,0,.961-2.32V6.549A.656.656,0,0,0,15.094,5.892Zm-2.976,7.969a1.952,1.952,0,0,1-.961.525V11.813a.656.656,0,0,1,.656-.656h2.576a1.979,1.979,0,0,1-.525.961Z" fill="#c6d0f7"/>
</svg>
