<svg xmlns="http://www.w3.org/2000/svg" width="16" height="16" viewBox="0 0 16 16">
  <path id="hastag" d="M15.333,4.667H12.127l.533-3.91a.667.667,0,1,0-1.321-.18l-.557,4.09H6.127L6.661.757A.667.667,0,0,0,5.339.577l-.557,4.09H1.333A.667.667,0,1,0,1.333,6H4.6l-.545,4H.667a.667.667,0,0,0,0,1.333H3.873l-.533,3.91a.667.667,0,1,0,1.321.18l.557-4.09H9.873l-.533,3.91a.667.667,0,1,0,1.321.18l.557-4.09h3.449a.667.667,0,0,0,0-1.333H11.4l.545-4h3.388a.667.667,0,0,0,0-1.333ZM10.055,10H5.4l.545-4H10.6Z" transform="translate(0 0)" fill="#c6d0f7"/>
</svg>
