<svg id="Journalism" xmlns="http://www.w3.org/2000/svg" width="63.323" height="66.166" viewBox="0 0 63.323 66.166">
  <g id="Group_2107" data-name="Group 2107" transform="translate(0 0)">
    <path id="Path_1785" data-name="Path 1785" d="M70.791,68.209a31.662,31.662,0,1,0-56.256,0Z" transform="translate(-11.001 -19.159)" fill="#e8efff"/>
    <path id="Path_1786" data-name="Path 1786" d="M402.241,108.368a31.8,31.8,0,0,0,9.3-10.987v-40a1.725,1.725,0,0,0-1.725-1.725h-7.572Z" transform="translate(-351.681 -48.459)" fill="#d3dcfb"/>
    <path id="Path_1787" data-name="Path 1787" d="M406.927,294.8h-.075a4.828,4.828,0,0,1-4.611-3.4v22.25a31.8,31.8,0,0,0,9.3-10.987V291.4A4.828,4.828,0,0,1,406.927,294.8Z" transform="translate(-351.681 -253.746)" fill="#bec8f7"/>
    <path id="Path_1788" data-name="Path 1788" d="M85.25,1.3a1.3,1.3,0,0,0-1.3-1.3H50.106a6.18,6.18,0,0,0-4.37,1.81L39.625,7.921a6.179,6.179,0,0,0-1.81,4.37V48.921A31.668,31.668,0,0,0,85.25,59.65Z" transform="translate(-34.35 0)" fill="#e9efff"/>
    <path id="Path_1789" data-name="Path 1789" d="M57.64,0H50.105a6.179,6.179,0,0,0-4.37,1.81L39.625,7.921a6.179,6.179,0,0,0-1.81,4.37V48.921a31.787,31.787,0,0,0,15.4,14.55,4.95,4.95,0,0,1-.566-2.3V5a5.011,5.011,0,0,1,5-5Z" transform="translate(-34.35 0)" fill="#d3dcfb"/>
    <g id="Group_2091" data-name="Group 2091" transform="translate(8.918 7.865)">
      <path id="Path_1790" data-name="Path 1790" d="M115.17,70.527H81.034A1.027,1.027,0,0,1,80.007,69.5V61.887a1.027,1.027,0,0,1,1.027-1.027H115.17a1.027,1.027,0,0,1,1.027,1.027V69.5A1.027,1.027,0,0,1,115.17,70.527Z" transform="translate(-80.007 -60.86)" fill="#ff4155"/>
    </g>
    <path id="Path_1791" data-name="Path 1791" d="M88.788,69.5V61.887a1.027,1.027,0,0,1,1.027-1.027h-8.78a1.027,1.027,0,0,0-1.027,1.027V69.5a1.027,1.027,0,0,0,1.027,1.027h8.78A1.027,1.027,0,0,1,88.788,69.5Z" transform="translate(-71.09 -52.995)" fill="#e80054"/>
    <g id="Group_2092" data-name="Group 2092" transform="translate(8.918 22.174)">
      <path id="Path_1792" data-name="Path 1792" d="M94.66,171.582H81.032a1.025,1.025,0,0,0-1.025,1.025v2.783a1.025,1.025,0,0,0,1.025,1.025H94.66a1.025,1.025,0,0,0,1.025-1.025v-2.783A1.025,1.025,0,0,0,94.66,171.582Z" transform="translate(-80.007 -171.582)" fill="#89e56a"/>
    </g>
    <g id="Group_2093" data-name="Group 2093" transform="translate(29.43 22.174)">
      <path id="Path_1793" data-name="Path 1793" d="M253.382,171.582H239.754a1.025,1.025,0,0,0-1.025,1.025v2.783a1.025,1.025,0,0,0,1.025,1.025h13.628a1.025,1.025,0,0,0,1.025-1.025v-2.783A1.025,1.025,0,0,0,253.382,171.582Z" transform="translate(-238.729 -171.582)" fill="#ffdd40"/>
    </g>
    <g id="Group_2094" data-name="Group 2094" transform="translate(8.918 45.108)">
      <path id="Path_1794" data-name="Path 1794" d="M94.66,349.049H81.032a1.025,1.025,0,0,0-1.025,1.025v2.783a1.025,1.025,0,0,0,1.025,1.025H94.66a1.025,1.025,0,0,0,1.025-1.025v-2.783A1.025,1.025,0,0,0,94.66,349.049Z" transform="translate(-80.007 -349.049)" fill="#827df9"/>
    </g>
    <g id="Group_2095" data-name="Group 2095" transform="translate(29.43 45.108)">
      <path id="Path_1795" data-name="Path 1795" d="M253.382,349.049H239.754a1.025,1.025,0,0,0-1.025,1.025v2.783a1.025,1.025,0,0,0,1.025,1.025h13.628a1.025,1.025,0,0,0,1.025-1.025v-2.783A1.025,1.025,0,0,0,253.382,349.049Z" transform="translate(-238.729 -349.049)" fill="#42c3fc"/>
    </g>
    <path id="Path_1796" data-name="Path 1796" d="M88.1,175.389v-2.783a1.025,1.025,0,0,1,1.025-1.025h-8.1a1.025,1.025,0,0,0-1.025,1.025v2.783a1.025,1.025,0,0,0,1.025,1.025h8.1A1.025,1.025,0,0,1,88.1,175.389Z" transform="translate(-71.089 -149.407)" fill="#65d33c"/>
    <path id="Path_1797" data-name="Path 1797" d="M246.827,175.389v-2.783a1.025,1.025,0,0,1,1.025-1.025h-8.1a1.025,1.025,0,0,0-1.025,1.025v2.783a1.025,1.025,0,0,0,1.025,1.025h8.1A1.025,1.025,0,0,1,246.827,175.389Z" transform="translate(-209.299 -149.407)" fill="#ffb332"/>
    <path id="Path_1798" data-name="Path 1798" d="M88.1,352.856v-2.783a1.025,1.025,0,0,1,1.025-1.025h-8.1a1.025,1.025,0,0,0-1.025,1.025v2.783a1.025,1.025,0,0,0,1.025,1.025h8.1A1.025,1.025,0,0,1,88.1,352.856Z" transform="translate(-71.089 -303.94)" fill="#746bf9"/>
    <path id="Path_1799" data-name="Path 1799" d="M246.827,352.856v-2.783a1.025,1.025,0,0,1,1.025-1.025h-8.1a1.025,1.025,0,0,0-1.025,1.025v2.783a1.025,1.025,0,0,0,1.025,1.025h8.1A1.025,1.025,0,0,1,246.827,352.856Z" transform="translate(-209.299 -303.94)" fill="#1aa9e8"/>
    <g id="Group_2096" data-name="Group 2096" transform="translate(39.665 2.875)">
      <path id="Path_1800" data-name="Path 1800" d="M323.376,24.462h-4.333a1.109,1.109,0,0,1,0-2.218h4.333a1.109,1.109,0,0,1,0,2.218Z" transform="translate(-317.934 -22.244)" fill="#bec8f7"/>
    </g>
    <g id="Group_2097" data-name="Group 2097" transform="translate(28.561 38.915)">
      <path id="Path_1801" data-name="Path 1801" d="M248.313,303.348h-15.2a1.109,1.109,0,1,1,0-2.218h15.2a1.109,1.109,0,1,1,0,2.218Z" transform="translate(-232.006 -301.13)" fill="#bec8f7"/>
    </g>
    <g id="Group_2098" data-name="Group 2098" transform="translate(28.561 34.719)">
      <path id="Path_1802" data-name="Path 1802" d="M248.313,270.878h-15.2a1.109,1.109,0,1,1,0-2.218h15.2a1.109,1.109,0,1,1,0,2.218Z" transform="translate(-232.006 -268.66)" fill="#bec8f7"/>
    </g>
    <g id="Group_2099" data-name="Group 2099" transform="translate(28.561 30.523)">
      <path id="Path_1803" data-name="Path 1803" d="M248.313,238.407h-15.2a1.109,1.109,0,0,1,0-2.218h15.2a1.109,1.109,0,0,1,0,2.218Z" transform="translate(-232.006 -236.189)" fill="#bec8f7"/>
    </g>
    <g id="Group_2100" data-name="Group 2100" transform="translate(28.561 53.334)">
      <path id="Path_1804" data-name="Path 1804" d="M248.313,414.919h-15.2a1.109,1.109,0,1,1,0-2.218h15.2a1.109,1.109,0,1,1,0,2.218Z" transform="translate(-232.006 -412.701)" fill="#bec8f7"/>
    </g>
    <g id="Group_2101" data-name="Group 2101" transform="translate(28.561 57.53)">
      <path id="Path_1805" data-name="Path 1805" d="M248.313,447.39h-15.2a1.109,1.109,0,1,1,0-2.218h15.2a1.109,1.109,0,1,1,0,2.218Z" transform="translate(-232.006 -445.172)" fill="#bec8f7"/>
    </g>
    <path id="Path_1806" data-name="Path 1806" d="M249.417,478.67a1.108,1.108,0,0,0-1.105-1.028h-15.2a1.109,1.109,0,1,0,0,2.218h13.664Q248.129,479.324,249.417,478.67Z" transform="translate(-203.444 -415.916)" fill="#bec8f7"/>
    <g id="Group_2102" data-name="Group 2102" transform="translate(8.049 38.915)">
      <path id="Path_1807" data-name="Path 1807" d="M89.592,303.348h-15.2a1.109,1.109,0,0,1,0-2.218h15.2a1.109,1.109,0,0,1,0,2.218Z" transform="translate(-73.285 -301.13)" fill="#bec8f7"/>
    </g>
    <g id="Group_2103" data-name="Group 2103" transform="translate(8.049 34.719)">
      <path id="Path_1808" data-name="Path 1808" d="M89.592,270.878h-15.2a1.109,1.109,0,0,1,0-2.218h15.2a1.109,1.109,0,0,1,0,2.218Z" transform="translate(-73.285 -268.66)" fill="#bec8f7"/>
    </g>
    <g id="Group_2104" data-name="Group 2104" transform="translate(8.049 30.523)">
      <path id="Path_1809" data-name="Path 1809" d="M89.592,238.407h-15.2a1.109,1.109,0,0,1,0-2.218h15.2a1.109,1.109,0,0,1,0,2.218Z" transform="translate(-73.285 -236.189)" fill="#bec8f7"/>
    </g>
    <g id="Group_2105" data-name="Group 2105" transform="translate(8.049 53.334)">
      <path id="Path_1810" data-name="Path 1810" d="M89.592,414.919h-15.2a1.109,1.109,0,0,1,0-2.218h15.2a1.109,1.109,0,0,1,0,2.218Z" transform="translate(-73.285 -412.701)" fill="#bec8f7"/>
    </g>
    <path id="Path_1811" data-name="Path 1811" d="M102.275,445.172H87.851a31.81,31.81,0,0,0,2.62,2.218h11.8a1.109,1.109,0,0,0,0-2.218Z" transform="translate(-77.92 -387.642)" fill="#bec8f7"/>
    <path id="Path_1812" data-name="Path 1812" d="M139.708,477.642h-8.869a31.529,31.529,0,0,0,4.5,2.218h4.366a1.109,1.109,0,0,0,0-2.218Z" transform="translate(-115.352 -415.916)" fill="#bec8f7"/>
    <g id="Group_2106" data-name="Group 2106" transform="translate(3.465)">
      <path id="Path_1813" data-name="Path 1813" d="M39.624,7.921a6.18,6.18,0,0,0-1.81,4.37v.778c0-2.782,2.739-3.268,4.106-3.338h3.228a2.4,2.4,0,0,0,2.4-2.4V4.382A5.314,5.314,0,0,1,50.1,0a6.179,6.179,0,0,0-4.37,1.81Z" transform="translate(-37.814 0)" fill="#bec8f7"/>
    </g>
    <path id="Path_1814" data-name="Path 1814" d="M43.057,34.735l-3.432,3.432a6.179,6.179,0,0,0-1.81,4.37v.778c0-2.782,2.739-3.268,4.106-3.338H45.15a2.4,2.4,0,0,0,2.4-2.4C43.258,38.328,43.057,34.735,43.057,34.735Z" transform="translate(-34.35 -30.246)" fill="#a2b6f4"/>
  </g>
</svg>
