<svg id="manager" xmlns="http://www.w3.org/2000/svg" width="63.376" height="63.376" viewBox="0 0 63.376 63.376">
  <g id="Group_2089" data-name="Group 2089" transform="translate(0 0)">
    <path id="Path_1771" data-name="Path 1771" d="M63.376,31.688A31.688,31.688,0,1,1,31.688,0,31.688,31.688,0,0,1,63.376,31.688Z" transform="translate(0 0)" fill="#e1e9f9"/>
    <path id="Path_1772" data-name="Path 1772" d="M146.046,63.023A23.023,23.023,0,1,1,123.023,40,23.023,23.023,0,0,1,146.046,63.023Z" transform="translate(-87.622 -35.049)" fill="#e8efff"/>
    <path id="Path_1773" data-name="Path 1773" d="M354.265,13.324a11.268,11.268,0,0,1-.4,1.488.627.627,0,0,1-.906.339l-.032-.019a1.438,1.438,0,1,0-1.438,2.49l.03.017a.627.627,0,0,1,.159.955,11.413,11.413,0,0,1-1.087,1.087.627.627,0,0,1-.955-.159l-.017-.03a1.438,1.438,0,0,0-2.009-.5,1.46,1.46,0,0,0-.464,1.967l0,0a.627.627,0,0,1-.339.906,11.255,11.255,0,0,1-1.488.4.627.627,0,0,1-.748-.615v-.037a1.438,1.438,0,0,0-1.49-1.437A1.46,1.46,0,0,0,341.7,21.65v0a.627.627,0,0,1-.748.615,11.262,11.262,0,0,1-1.488-.4.627.627,0,0,1-.339-.906l.019-.032a1.438,1.438,0,0,0-.572-1.989,1.46,1.46,0,0,0-1.935.582.627.627,0,0,1-.955.159,11.41,11.41,0,0,1-1.087-1.087.627.627,0,0,1,.159-.955l.03-.017a1.438,1.438,0,0,0-1.438-2.49l-.032.019a.627.627,0,0,1-.906-.339,11.263,11.263,0,0,1-.4-1.488.627.627,0,0,1,.615-.748h.036a1.438,1.438,0,0,0,0-2.875h-.036a.627.627,0,0,1-.615-.748,11.268,11.268,0,0,1,.4-1.488.627.627,0,0,1,.906-.339l.032.019a1.438,1.438,0,0,0,1.438-2.49l-.03-.017a.627.627,0,0,1-.159-.955A11.406,11.406,0,0,1,335.681,2.6a.627.627,0,0,1,.955.159l.017.03a1.438,1.438,0,0,0,2.009.5,1.46,1.46,0,0,0,.464-1.967v0a.627.627,0,0,1,.339-.906,11.256,11.256,0,0,1,1.488-.4.627.627,0,0,1,.748.615V.662a1.438,1.438,0,0,0,1.49,1.437A1.46,1.46,0,0,0,344.574.627v0a.627.627,0,0,1,.748-.615,11.243,11.243,0,0,1,1.488.4.627.627,0,0,1,.339.906l-.019.032a1.438,1.438,0,0,0,.572,1.989,1.46,1.46,0,0,0,1.935-.582.627.627,0,0,1,.955-.159,11.409,11.409,0,0,1,1.087,1.087.627.627,0,0,1-.159.955l-.03.017a1.438,1.438,0,1,0,1.438,2.49l.032-.019a.627.627,0,0,1,.906.339,11.263,11.263,0,0,1,.4,1.488.627.627,0,0,1-.615.748h-.036a1.438,1.438,0,1,0,0,2.875h.036A.627.627,0,0,1,354.265,13.324Z" transform="translate(-290.902 0.002)" fill="#3493f8"/>
    <path id="Path_1774" data-name="Path 1774" d="M412.818,13.325a11.259,11.259,0,0,1-.4,1.488.627.627,0,0,1-.906.339l-.032-.019a1.438,1.438,0,1,0-1.438,2.49l.03.017a.627.627,0,0,1,.159.955,11.409,11.409,0,0,1-1.087,1.087.627.627,0,0,1-.955-.159l-.017-.03a1.438,1.438,0,0,0-2.009-.5,1.46,1.46,0,0,0-.464,1.967l0,0a.627.627,0,0,1-.339.906,11.254,11.254,0,0,1-1.488.4.627.627,0,0,1-.748-.615v-.037a1.438,1.438,0,0,0-1.49-1.437,1.408,1.408,0,0,0-.278.038,17.5,17.5,0,0,1,0-18.156,1.447,1.447,0,0,0,.383.037A1.46,1.46,0,0,0,403.127.628v0a.627.627,0,0,1,.747-.615,11.244,11.244,0,0,1,1.488.4.627.627,0,0,1,.339.906l-.019.032a1.438,1.438,0,0,0,.572,1.989,1.46,1.46,0,0,0,1.935-.582.627.627,0,0,1,.955-.159,11.408,11.408,0,0,1,1.087,1.087.627.627,0,0,1-.159.955l-.03.017a1.438,1.438,0,0,0,1.438,2.49l.032-.019a.627.627,0,0,1,.906.339,11.244,11.244,0,0,1,.4,1.488.627.627,0,0,1-.615.748h-.036a1.438,1.438,0,0,0,0,2.875h.036a.627.627,0,0,1,.615.747Z" transform="translate(-349.454 0.001)" fill="#76b6fa"/>
    <path id="Path_1775" data-name="Path 1775" d="M394.636,58.135a4.5,4.5,0,1,1-4.5-4.5A4.5,4.5,0,0,1,394.636,58.135Z" transform="translate(-337.899 -46.994)" fill="#51489a"/>
    <path id="Path_1776" data-name="Path 1776" d="M383.258,45.785a5.473,5.473,0,1,0,5.473,5.473A5.479,5.479,0,0,0,383.258,45.785Zm0,9a3.53,3.53,0,1,1,3.53-3.53A3.534,3.534,0,0,1,383.258,54.788Z" transform="translate(-331.023 -40.118)" fill="#c8e2fd"/>
    <path id="Path_1777" data-name="Path 1777" d="M411.926,221.185a.963.963,0,1,1-.963-.963.963.963,0,0,1,.963.963Zm2.407-.963a.963.963,0,1,0,.963.963A.963.963,0,0,0,414.332,220.222Zm3.37,0a.963.963,0,1,0,.963.963A.963.963,0,0,0,417.7,220.222Z" transform="translate(-359.25 -192.963)" fill="#55a4f9"/>
    <path id="Path_1778" data-name="Path 1778" d="M72.845,135.524a21.571,21.571,0,0,1-.762,2.85,1.2,1.2,0,0,1-1.736.65l-.062-.036a2.754,2.754,0,0,0-2.754,4.77l.057.033a1.2,1.2,0,0,1,.3,1.83A21.846,21.846,0,0,1,65.81,147.7a1.2,1.2,0,0,1-1.829-.3l-.033-.057a2.754,2.754,0,0,0-3.848-.956,2.8,2.8,0,0,0-.889,3.768l0,0a1.2,1.2,0,0,1-.65,1.736,21.567,21.567,0,0,1-2.85.762,1.2,1.2,0,0,1-1.432-1.178v-.07a2.754,2.754,0,0,0-2.854-2.752,2.8,2.8,0,0,0-2.654,2.818v0a1.2,1.2,0,0,1-1.432,1.178,21.56,21.56,0,0,1-2.85-.762,1.2,1.2,0,0,1-.65-1.736l.036-.062a2.754,2.754,0,0,0-1.1-3.811,2.8,2.8,0,0,0-3.707,1.114,1.2,1.2,0,0,1-1.829.3,21.848,21.848,0,0,1-2.083-2.083,1.2,1.2,0,0,1,.3-1.83l.057-.033a2.754,2.754,0,1,0-2.754-4.77l-.062.036a1.2,1.2,0,0,1-1.736-.65,21.572,21.572,0,0,1-.762-2.85,1.2,1.2,0,0,1,1.178-1.432h.07a2.754,2.754,0,0,0,0-5.508h-.07a1.2,1.2,0,0,1-1.178-1.432,21.571,21.571,0,0,1,.762-2.85,1.2,1.2,0,0,1,1.736-.65l.062.036a2.754,2.754,0,1,0,2.754-4.77l-.057-.033a1.2,1.2,0,0,1-.3-1.83,21.848,21.848,0,0,1,2.083-2.083,1.2,1.2,0,0,1,1.829.3l.033.057a2.754,2.754,0,0,0,3.848.956,2.8,2.8,0,0,0,.889-3.768l0,0a1.2,1.2,0,0,1,.65-1.736,21.554,21.554,0,0,1,2.85-.762,1.2,1.2,0,0,1,1.432,1.178v.07a2.754,2.754,0,0,0,2.854,2.752,2.8,2.8,0,0,0,2.654-2.818v0a1.2,1.2,0,0,1,1.432-1.178,21.572,21.572,0,0,1,2.85.762,1.2,1.2,0,0,1,.65,1.736l-.036.062a2.754,2.754,0,0,0,1.1,3.811,2.8,2.8,0,0,0,3.707-1.114,1.2,1.2,0,0,1,1.829-.3,21.846,21.846,0,0,1,2.083,2.083,1.2,1.2,0,0,1-.3,1.83l-.057.033a2.754,2.754,0,1,0,2.754,4.77l.062-.036a1.2,1.2,0,0,1,1.736.65,21.55,21.55,0,0,1,.762,2.85,1.2,1.2,0,0,1-1.178,1.432H71.6a2.754,2.754,0,0,0,0,5.508h.07a1.2,1.2,0,0,1,1.178,1.432Z" transform="translate(-26.45 -96.381)" fill="#ffc14f"/>
    <path id="Path_1779" data-name="Path 1779" d="M185.01,135.526a21.57,21.57,0,0,1-.762,2.85,1.2,1.2,0,0,1-1.736.65l-.062-.036a2.754,2.754,0,1,0-2.754,4.77l.057.033a1.2,1.2,0,0,1,.3,1.83,21.863,21.863,0,0,1-2.083,2.083,1.2,1.2,0,0,1-1.829-.3l-.033-.057a2.754,2.754,0,0,0-3.848-.956,2.8,2.8,0,0,0-.889,3.768l0,0a1.2,1.2,0,0,1-.65,1.736,21.552,21.552,0,0,1-2.85.762,1.2,1.2,0,0,1-1.432-1.178v-.07a2.754,2.754,0,0,0-2.855-2.752,2.676,2.676,0,0,0-.533.073,33.531,33.531,0,0,1,0-34.78,2.756,2.756,0,0,0,3.388-2.747v0a1.2,1.2,0,0,1,1.432-1.178,21.562,21.562,0,0,1,2.85.762,1.2,1.2,0,0,1,.65,1.736l-.036.062a2.754,2.754,0,0,0,1.1,3.811,2.8,2.8,0,0,0,3.707-1.114,1.2,1.2,0,0,1,1.829-.3,21.863,21.863,0,0,1,2.083,2.083,1.2,1.2,0,0,1-.3,1.829l-.057.033a2.754,2.754,0,0,0,2.754,4.77l.062-.036a1.2,1.2,0,0,1,1.736.65,21.547,21.547,0,0,1,.762,2.85,1.2,1.2,0,0,1-1.178,1.432h-.07a2.754,2.754,0,0,0,0,5.508h.07A1.2,1.2,0,0,1,185.01,135.526Z" transform="translate(-138.614 -96.384)" fill="#fff04a"/>
    <path id="Path_1780" data-name="Path 1780" d="M124.606,199.628a12.561,12.561,0,1,1-4.791-17.106A12.561,12.561,0,0,1,124.606,199.628Z" transform="translate(-88.58 -158.513)" fill="#5f55af"/>
    <path id="Path_1781" data-name="Path 1781" d="M120.589,203.949a12.563,12.563,0,1,1-6.45-23.033,12.566,12.566,0,0,0,6.45,23.033Z" transform="translate(-88.579 -158.514)" fill="#51489a"/>
    <path id="Path_1782" data-name="Path 1782" d="M107.1,173.425a13.49,13.49,0,1,0,13.49,13.49A13.505,13.505,0,0,0,107.1,173.425Zm0,25.123a11.633,11.633,0,1,1,11.633-11.633A11.646,11.646,0,0,1,107.1,198.548Z" transform="translate(-82.025 -151.958)" fill="#ffa90b"/>
    <path id="Path_1783" data-name="Path 1783" d="M110.371,218.341a.618.618,0,0,1-.181.438l-3.889,3.889a.619.619,0,0,1-.875-.875l2.833-2.833H89.808a.619.619,0,1,1,0-1.238h18.45l-2.833-2.833a.619.619,0,0,1,.875-.875l3.889,3.889A.618.618,0,0,1,110.371,218.341Z" transform="translate(-78.149 -187.365)" fill="#a7d0fc"/>
    <path id="Path_1784" data-name="Path 1784" d="M170.371,282.341a.619.619,0,0,1-.619.619H151.3l2.833,2.833a.619.619,0,1,1-.875.875l-3.889-3.889a.619.619,0,0,1,0-.875l3.889-3.889a.619.619,0,1,1,.875.875l-2.833,2.833h18.45A.619.619,0,0,1,170.371,282.341Z" transform="translate(-130.722 -243.443)" fill="#fff"/>
  </g>
</svg>
