<svg xmlns="http://www.w3.org/2000/svg" width="17.455" height="16" viewBox="0 0 17.455 16">
  <g id="news" transform="translate(0 -1)">
    <g id="Group_2120" data-name="Group 2120" transform="translate(2.909 13.727)">
      <path id="Path_1818" data-name="Path 1818" d="M15.091,19.591H4.545a.545.545,0,0,1,0-1.091H15.091a.545.545,0,1,1,0,1.091Z" transform="translate(-4 -18.5)" fill="#fff"/>
    </g>
    <g id="Group_2121" data-name="Group 2121" transform="translate(10.909 6.455)">
      <path id="Path_1819" data-name="Path 1819" d="M18.091,9.591H15.545a.545.545,0,1,1,0-1.091h2.545a.545.545,0,1,1,0,1.091Z" transform="translate(-15 -8.5)" fill="#fff"/>
    </g>
    <g id="Group_2122" data-name="Group 2122" transform="translate(10.909 8.636)">
      <path id="Path_1820" data-name="Path 1820" d="M18.091,12.591H15.545a.545.545,0,1,1,0-1.091h2.545a.545.545,0,1,1,0,1.091Z" transform="translate(-15 -11.5)" fill="#fff"/>
    </g>
    <g id="Group_2123" data-name="Group 2123" transform="translate(10.909 10.818)">
      <path id="Path_1821" data-name="Path 1821" d="M18.091,15.591H15.545a.545.545,0,1,1,0-1.091h2.545a.545.545,0,1,1,0,1.091Z" transform="translate(-15 -14.5)" fill="#fff"/>
    </g>
    <g id="Group_2124" data-name="Group 2124" transform="translate(2.909 8.294)">
      <path id="Path_1822" data-name="Path 1822" d="M4.546,14.026a.546.546,0,0,1-.385-.932l1.12-1.12a1.276,1.276,0,0,1,1.8,0,.167.167,0,0,0,.273-.014l.377-.472a1.3,1.3,0,0,1,1.99,0l.7.876a.546.546,0,1,1-.851.683l-.705-.88c-.1-.13-.185-.126-.281,0l-.38.476a1.314,1.314,0,0,1-1.9.1.158.158,0,0,0-.261,0l-1.12,1.12A.544.544,0,0,1,4.546,14.026Z" transform="translate(-4 -11.029)" fill="#fff"/>
    </g>
    <g id="Group_2125" data-name="Group 2125" transform="translate(2.909 6.091)">
      <path id="Path_1823" data-name="Path 1823" d="M9.273,14.545h-4A1.274,1.274,0,0,1,4,13.273v-4A1.274,1.274,0,0,1,5.273,8h4a1.274,1.274,0,0,1,1.273,1.273v4A1.274,1.274,0,0,1,9.273,14.545Zm-4-5.455a.182.182,0,0,0-.182.182v4a.182.182,0,0,0,.182.182h4a.182.182,0,0,0,.182-.182v-4a.182.182,0,0,0-.182-.182Z" transform="translate(-4 -8)" fill="#fff"/>
    </g>
    <g id="Group_2126" data-name="Group 2126" transform="translate(0 1)">
      <path id="Path_1824" data-name="Path 1824" d="M15.455,17H2a2,2,0,0,1-2-2V3A2,2,0,0,1,2,1H15.455a2,2,0,0,1,2,2V15A2,2,0,0,1,15.455,17ZM2,2.091A.91.91,0,0,0,1.091,3V15A.91.91,0,0,0,2,15.909H15.455A.91.91,0,0,0,16.364,15V3a.91.91,0,0,0-.909-.909Z" transform="translate(0 -1)" fill="#fff"/>
    </g>
    <g id="Group_2127" data-name="Group 2127" transform="translate(0 3.545)">
      <path id="Path_1825" data-name="Path 1825" d="M16.909,5.591H.545a.545.545,0,1,1,0-1.091H16.909a.545.545,0,0,1,0,1.091Z" transform="translate(0 -4.5)" fill="#fff"/>
    </g>
  </g>
</svg>
