<svg xmlns="http://www.w3.org/2000/svg" width="18.5" height="13.721" viewBox="0 0 18.5 13.721">
  <g id="partner" transform="translate(-5 -20.765)">
    <g id="Layer_2" data-name="Layer 2" transform="translate(5 20.765)">
      <path id="Path_1867" data-name="Path 1867" d="M23.294,22.252a.524.524,0,0,0-.442-.095l-1.971.506a23.079,23.079,0,0,1-4.37-1.5l-.027-.01a4.706,4.706,0,0,0-4.545.411c-1.69-.578-3.854.641-4.522,1.059l-1.776-.456a.512.512,0,0,0-.641.5v7.194a.514.514,0,0,0,.514.514H6.605l4.672,3.684a1.542,1.542,0,0,0,2.483-.5,1.538,1.538,0,0,0,2.181-.726,1.535,1.535,0,0,0,2.179-.726,1.538,1.538,0,0,0,2.3-1.383l1.1-.352h1.47a.514.514,0,0,0,.514-.514V22.664A.51.51,0,0,0,23.294,22.252ZM6.028,23.321l.919.236L6.579,26.98l-.255,2.364h-.3Zm13.221,7.8a.524.524,0,0,1-.728,0L17.8,30.4,14.889,27.49a.514.514,0,0,0-.728.724l2.909,2.913a.514.514,0,1,1-.728.726l-.728-.728-2.187-2.181a.515.515,0,1,0-.728.728l2.189,2.181a.514.514,0,1,1-.728.726L11.989,30.4a.512.512,0,0,0-.726,0,.5.5,0,0,0-.15.362.512.512,0,0,0,.15.364l1.453,1.453a.516.516,0,0,1,0,.728.528.528,0,0,1-.728,0,.43.43,0,0,0-.045-.041L7.325,29.63l.516-4.767.15-1.39a6.271,6.271,0,0,1,2.989-1.028,8.031,8.031,0,0,0-.841,1.168,1.774,1.774,0,0,0,.522,2.358c.728.5,2.056.96,3.7-.46L19.249,30.4a.518.518,0,0,1,0,.728Zm.808-1.363a1.1,1.1,0,0,0-.08-.09l-4.892-4.892a8.847,8.847,0,0,0,.617-.791.514.514,0,1,0-.835-.592c-.913,1.293-2.278,2.641-3.618,1.727a.742.742,0,0,1-.206-.987,5.793,5.793,0,0,1,1.287-1.57.433.433,0,0,0,.047-.039,3.649,3.649,0,0,1,3.758-.411,29.943,29.943,0,0,0,4.333,1.521l.452,5.856Zm2.415-.417h-.551l-.446-5.774,1-.249Z" transform="translate(-5 -20.765)" fill="#c6d0f7"/>
    </g>
  </g>
</svg>
