<svg id="portrait" xmlns="http://www.w3.org/2000/svg" width="16.75" height="16.75" viewBox="0 0 16.75 16.75">
  <path id="Path_1865" data-name="Path 1865" d="M13.26,0H3.49A3.494,3.494,0,0,0,0,3.49V13.26a3.494,3.494,0,0,0,3.49,3.49H13.26a3.494,3.494,0,0,0,3.49-3.49V3.49A3.494,3.494,0,0,0,13.26,0ZM4.885,15.354v-.7a3.49,3.49,0,0,1,6.979,0v.7ZM15.354,13.26a2.094,2.094,0,0,1-2.094,2.094v-.7a4.885,4.885,0,0,0-9.771,0v.7A2.094,2.094,0,0,1,1.4,13.26V3.49A2.094,2.094,0,0,1,3.49,1.4H13.26A2.094,2.094,0,0,1,15.354,3.49Z" fill="#c6d0f7"/>
  <path id="Path_1866" data-name="Path 1866" d="M10.792,4a2.792,2.792,0,1,0,2.792,2.792A2.792,2.792,0,0,0,10.792,4Zm0,4.188a1.4,1.4,0,1,1,1.4-1.4A1.4,1.4,0,0,1,10.792,8.188Z" transform="translate(-2.417 -1.208)" fill="#c6d0f7"/>
</svg>
