<svg id="category" xmlns="http://www.w3.org/2000/svg" width="22.204" height="22.204" viewBox="0 0 22.204 22.204">
  <path id="Vector" d="M2.776,7.4h1.85A2.453,2.453,0,0,0,7.4,4.626V2.776A2.453,2.453,0,0,0,4.626,0H2.776A2.453,2.453,0,0,0,0,2.776v1.85A2.453,2.453,0,0,0,2.776,7.4Z" transform="translate(1.85 1.85)" fill="none" stroke="#bababa" stroke-linecap="round" stroke-linejoin="round" stroke-width="1.5"/>
  <path id="Vector-2" data-name="Vector" d="M2.776,7.4h1.85A2.453,2.453,0,0,0,7.4,4.626V2.776A2.453,2.453,0,0,0,4.626,0H2.776A2.453,2.453,0,0,0,0,2.776v1.85A2.453,2.453,0,0,0,2.776,7.4Z" transform="translate(12.953 1.85)" fill="none" stroke="#bababa" stroke-linecap="round" stroke-linejoin="round" stroke-width="1.5"/>
  <path id="Vector-3" data-name="Vector" d="M2.776,7.4h1.85A2.453,2.453,0,0,0,7.4,4.626V2.776A2.453,2.453,0,0,0,4.626,0H2.776A2.453,2.453,0,0,0,0,2.776v1.85A2.453,2.453,0,0,0,2.776,7.4Z" transform="translate(12.953 12.953)" fill="none" stroke="#bababa" stroke-linecap="round" stroke-linejoin="round" stroke-width="1.5"/>
  <path id="Vector-4" data-name="Vector" d="M2.776,7.4h1.85A2.453,2.453,0,0,0,7.4,4.626V2.776A2.453,2.453,0,0,0,4.626,0H2.776A2.453,2.453,0,0,0,0,2.776v1.85A2.453,2.453,0,0,0,2.776,7.4Z" transform="translate(1.85 12.953)" fill="none" stroke="#bababa" stroke-linecap="round" stroke-linejoin="round" stroke-width="1.5"/>
  <path id="Vector-5" data-name="Vector" d="M0,0H22.2V22.2H0Z" fill="none" opacity="0"/>
</svg>
